{"title":"Once Upon a Time in America 1984 EXT BDRip XviD MP3 Idiocracy","uid":11757938,"size":1247725077,"categoryP":"video","categoryS":"movies","magnet":"?xt=urn:btih:03695d6f6db7e72a770a59fc8d289e6502ed4be7&amp;dn=Once+Upon+a+Time+in+America+1984+EXT+BDRip+XviD+MP3+Idiocracy&amp;tr=udp%3A%2F%2Ftracker.openbittorrent.com%3A80&amp;tr=udp%3A%2F%2Fopen.demonii.com%3A1337&amp;tr=udp%3A%2F%2Ftracker.coppersurfer.tk%3A6969&amp;tr=udp%3A%2F%2Fexodus.desync.com%3A6969","seeders":1,"leechers":2,"uploader":"Satafakap","files":3,"time":1426498871,"description":"Synopsis / Plot\n\nA former Prohibition-era Jewish gangster returns to the Lower East Side of Manhattan over thirty years later, where he once again must confront the ghosts and regrets of his old life.\n\nDirector: Sergio Leone\nWriters: Harry Grey (novel), Leonardo Benvenuti\nStars: Robert De Niro, James Woods, Elizabeth McGovern  \n &lt;a href=&quot;\nhttp://www.imdb.com/title/tt0087843/&quot; rel=&quot;nofollow&quot; target=&quot;_NEW&quot;&gt;\nhttp://www.imdb.com/title/tt0087843/&lt;/a&gt;\n\nGeneral\n\nComplete name         : Once.Upon.a.Time.in.America.1984.EXTENDED.BDRip.XviD.MP3-Idiocracy.avi\nFormat                : AVI\nFormat/Info           : Audio Video Interleave\nFile size             : 1.16 GiB\nDuration              : 4h 11mn\nOverall bit rate      : 660 Kbps\nWriting application   : VirtualDubMod 1.5.10.3 | www.virtualdub-fr.org\nWriting library       : VirtualDubMod build 2550/release\nSource                : Once Upon a Time in America 1984 EXTENDED BDRip x264-ARCHiViST - Thanks!\nSample                : Yes\n\nVideo\n\nID                                       : 0\nFormat                                   : MPEG-4 Visual\nFormat profile                           : Advanced Simple@L5\nFormat settings, BVOP                    : 2\nFormat settings, QPel                    : No\nFormat settings, GMC                     : No warppoints\nFormat settings, Matrix                  : Default (H.263)\nMuxing mode                              : Packed bitstream\nCodec ID                                 : XVID\nCodec ID/Hint                            : XviD\nDuration                                 : 4h 11mn\nBit rate                                 : 539 Kbps\nWidth                                    : 640 pixels\nHeight                                   : 360 pixels\nDisplay aspect ratio                     : 16:9\nOriginal display aspect ratio            : 16:9\nFrame rate                               : 23.976 fps\nColor space                              : YUV\nChroma subsampling                       : 4:2:0\nBit depth                                : 8 bits\nScan type                                : Progressive\nCompression mode                         : Lossy\nBits/(Pixel*Frame)                       : 0.097\nStream size                              : 967 MiB (82%)\nWriting library                          : XviD 64\n\nAudio\n\nID                                       : 1\nFormat                                   : MPEG Audio\nFormat version                           : Version 1\nFormat profile                           : Layer 3\nMode                                     : Joint stereo\nMode extension                           : MS Stereo\nCodec ID                                 : 55\nCodec ID/Hint                            : MP3\nDuration                                 : 4h 11mn\nBit rate mode                            : Constant\nBit rate                                 : 112 Kbps\nChannel(s)                               : 2 channels\nSampling rate                            : 48.0 KHz\nCompression mode                         : Lossy\nStream size                              : 201 MiB (17%)\nAlignment                                : Split accross interleaves\nInterleave, duration                     : 42 ms (1.00 video frame)\nInterleave, preload duration             : 500 ms\n\nScreenshots:\n &lt;a href=&quot;\nhttp://i.imgur.com/ztj4qVf.jpg&quot; rel=&quot;nofollow&quot; target=&quot;_NEW&quot;&gt;\nhttp://i.imgur.com/ztj4qVf.jpg&lt;/a&gt;\n &lt;a href=&quot;\nhttp://i.imgur.com/zliOw10.jpg&quot; rel=&quot;nofollow&quot; target=&quot;_NEW&quot;&gt;\nhttp://i.imgur.com/zliOw10.jpg&lt;/a&gt;\n &lt;a href=&quot;\nhttp://i.imgur.com/UXaFFut.jpg&quot; rel=&quot;nofollow&quot; target=&quot;_NEW&quot;&gt;\nhttp://i.imgur.com/UXaFFut.jpg&lt;/a&gt;\n &lt;a href=&quot;\nhttp://i.imgur.com/BhM50kK.jpg&quot; rel=&quot;nofollow&quot; target=&quot;_NEW&quot;&gt;\nhttp://i.imgur.com/BhM50kK.jpg&lt;/a&gt;\n &lt;a href=&quot;\nhttp://i.imgur.com/WvtjiQ8.jpg&quot; rel=&quot;nofollow&quot; target=&quot;_NEW&quot;&gt;\nhttp://i.imgur.com/WvtjiQ8.jpg&lt;/a&gt;","torrent":{"xt":"urn:btih:03695d6f6db7e72a770a59fc8d289e6502ed4be7","amp;dn":"Once+Upon+a+Time+in+America+1984+EXT+BDRip+XviD+MP3+Idiocracy","amp;tr":["udp%3A%2F%2Ftracker.openbittorrent.com%3A80","udp%3A%2F%2Fopen.demonii.com%3A1337","udp%3A%2F%2Ftracker.coppersurfer.tk%3A6969","udp%3A%2F%2Fexodus.desync.com%3A6969"],"infoHash":"03695d6f6db7e72a770a59fc8d289e6502ed4be7","infoHashBuffer":{"type":"Buffer","data":[3,105,93,111,109,183,231,42,119,10,89,252,141,40,158,101,2,237,75,231]},"announce":[],"urlList":[]}}